<?xml version="1.0" encoding="utf-8"?>
<!-- Generator: Adobe Illustrator 23.0.4, SVG Export Plug-In . SVG Version: 6.00 Build 0)  -->
<svg version="1.1" id="Capa_1" xmlns="http://www.w3.org/2000/svg" xmlns:xlink="http://www.w3.org/1999/xlink" x="0px" y="0px"
	 viewBox="0 0 200 82" style="enable-background:new 0 0 200 82;" xml:space="preserve">
<style type="text/css">
	.st0{enable-background:new    ;}
	.st1{fill:#FFFFFF;}
</style>
<g>
	<g class="st0">
		<path class="st1" d="M84.4,27.6V14.5h8.3v1.9h-5.8v3.4h5.3v1.9h-5.3v3.9h5.9v1.9H84.4z"/>
		<path class="st1" d="M100.7,19.8c-0.7-0.4-1.5-0.6-2.3-0.6c-0.6,0-1.5,0.2-1.5,1c0,1.9,4.9,0.8,4.9,4.4c0,2.2-2.1,3.1-4.1,3.1
			c-1.1,0-2.2-0.2-3.3-0.7l0.6-1.8c0.8,0.4,1.6,0.7,2.5,0.7c0.7,0,1.7-0.2,1.7-1.1c0-1.9-4.9-0.8-4.9-4.4c0-2.1,1.9-3,3.8-3
			c1.1,0,2.1,0.1,3.1,0.6L100.7,19.8z"/>
		<path class="st1" d="M110.8,25.5l0.5,1.7c-0.8,0.4-2,0.6-2.9,0.6c-3.1,0-5.2-2-5.2-5.1c0-3.1,2.2-5.2,5.2-5.2c1,0,1.9,0.2,2.8,0.6
			l-0.5,1.7c-0.6-0.4-1.3-0.6-2-0.6c-2,0-3,1.4-3,3.3c0,1.9,1,3.4,3.1,3.4C109.5,26,110.2,25.8,110.8,25.5z"/>
		<path class="st1" d="M115.7,17.7v6.4c0,1.2,0.5,1.9,1.7,1.9c0.8,0,1.7-0.4,2.2-1.1v-7.1h2.5v9.9h-1.8l-0.3-1.1h-0.1
			c-0.9,0.9-2,1.3-3.3,1.3c-2.2,0-3.4-1.2-3.4-3.5v-6.6H115.7z"/>
		<path class="st1" d="M126.6,23.3v0.1c0,1.8,1.5,2.5,3.1,2.5c0.9,0,1.8-0.1,2.6-0.5l0.5,1.7c-1,0.5-2.2,0.6-3.3,0.6
			c-3.1,0-5.3-1.8-5.3-5.1c0-2.9,1.7-5.2,4.8-5.2c1.9,0,3.2,0.8,3.8,2.3c0.4,1,0.4,2.1,0.4,3.4H126.6z M130.7,21.5
			c0-1.2-0.5-2.3-1.8-2.3c-1.3,0-2.1,1.1-2.2,2.3L130.7,21.5z"/>
		<path class="st1" d="M137.8,24.3c0,1.2,0.7,1.3,1.6,1.3h0.6v1.9h-1.4c-1.9,0-3.2-0.7-3.2-2.8v-12h2.4V24.3z"/>
		<path class="st1" d="M147.1,21.5V21c0-1.1-0.7-1.6-1.7-1.6c-1,0-1.9,0.3-2.7,0.8l-0.8-1.6c1.2-0.7,2.5-1.1,3.9-1.1
			c2.4,0,3.8,1.2,3.8,3.7v6.4h-1.9l-0.2-1.1h-0.1c-0.7,0.9-1.8,1.3-3,1.3c-1.9,0-3.3-1.1-3.3-3C141.1,21.5,143.4,21.5,147.1,21.5z
			 M146.1,23.1c-1.6,0-2.4,0.2-2.4,1.5c0,1,0.7,1.4,1.6,1.4c0.7,0,1.6-0.5,1.9-1.1v-1.8H146.1z"/>
	</g>
	<g class="st0">
		<path class="st1" d="M88.3,37.2c0.8,0,1.8,0.2,2.3,0.7v-5.5h2.5v14.8h-1.7l-0.3-1H91c-0.6,0.9-1.8,1.2-2.9,1.2
			c-2.9,0-4.4-2.4-4.4-5.1C83.7,39.4,85.2,37.2,88.3,37.2z M86.2,42.2c0,1.7,0.6,3.4,2.6,3.4c0.8,0,1.5-0.4,1.9-1v-4.8
			c-0.4-0.6-1.1-0.8-1.8-0.8C86.9,39,86.2,40.5,86.2,42.2z"/>
		<path class="st1" d="M97.6,42.9v0.1c0,1.8,1.5,2.5,3.1,2.5c0.9,0,1.8-0.1,2.6-0.5l0.5,1.7c-1,0.5-2.2,0.6-3.3,0.6
			c-3.2,0-5.3-1.8-5.3-5.1c0-2.9,1.7-5.2,4.8-5.2c1.9,0,3.2,0.8,3.8,2.3c0.4,1,0.4,2.1,0.4,3.4H97.6z M101.7,41.2
			c0-1.2-0.5-2.3-1.8-2.3c-1.3,0-2.1,1.1-2.2,2.3L101.7,41.2z"/>
		<path class="st1" d="M121,34.7l-0.5,1.7c-1-0.5-2-0.7-3-0.7c-3,0-4.4,2.2-4.4,5c0,2.7,1.3,4.9,4.2,4.9c0.5,0,1.2,0,1.6-0.2V42
			h-2.3v-1.9h4.7v6.5c-1.3,0.6-2.7,0.7-4.1,0.7c-4.1,0-6.8-2.6-6.8-6.7c0-4.1,2.7-6.8,6.8-6.8C118.5,33.9,119.8,34.1,121,34.7z"/>
		<path class="st1" d="M125.6,42.9v0.1c0,1.8,1.5,2.5,3.1,2.5c0.9,0,1.8-0.1,2.6-0.5l0.5,1.7c-1,0.5-2.2,0.6-3.3,0.6
			c-3.1,0-5.3-1.8-5.3-5.1c0-2.9,1.7-5.2,4.8-5.2c1.9,0,3.2,0.8,3.8,2.3c0.4,1,0.4,2.1,0.4,3.4H125.6z M129.7,41.2
			c0-1.2-0.5-2.3-1.8-2.3c-1.3,0-2.1,1.1-2.2,2.3L129.7,41.2z"/>
		<path class="st1" d="M138.6,47.4c-3,0-4.9-2-4.9-5c0-3,1.9-5.3,5-5.3c3.1,0,4.9,2.1,4.9,5.1C143.6,45.2,141.7,47.4,138.6,47.4z
			 M138.6,39c-1.9,0-2.4,1.8-2.4,3.3c0,1.5,0.6,3.3,2.4,3.3s2.4-1.8,2.4-3.3C141,40.8,140.4,39,138.6,39z"/>
		<path class="st1" d="M149.5,37.2c0.9,0,1.8,0.3,2.5,0.9c0.1-0.2,0.1-0.5,0.1-0.7h2.3v10.5c0,3-2.1,4.6-4.9,4.6h-3.5v-1.9h3.1
			c2.4,0,2.8-1.6,2.8-3.8c-0.7,0.6-1.7,0.7-2.6,0.7c-2.9,0-4.3-2.5-4.3-5.1C145.1,39.6,146.5,37.2,149.5,37.2z M150,45.6
			c0.7,0,1.5-0.3,1.9-0.8v-4.9c-0.5-0.6-1.1-0.9-1.9-0.9c-1.8,0-2.4,1.8-2.4,3.3C147.6,43.8,148.2,45.6,150,45.6z"/>
		<path class="st1" d="M157.2,47.2v-9.9h2.2v1.8c0.6-1.3,1.7-2,3.1-2h1.5v2h-1.8c-1.8,0-2.4,1.4-2.4,3v5.1H157.2z"/>
		<path class="st1" d="M170.4,41.2v-0.6c0-1.1-0.7-1.6-1.7-1.6c-1,0-1.9,0.3-2.7,0.8l-0.8-1.6c1.2-0.7,2.5-1.1,3.9-1.1
			c2.4,0,3.8,1.2,3.8,3.7v6.4h-1.9l-0.2-1.1h-0.1c-0.7,0.9-1.8,1.3-3,1.3c-1.9,0-3.3-1.1-3.3-3C164.5,41.2,166.7,41.2,170.4,41.2z
			 M169.4,42.8c-1.6,0-2.4,0.2-2.4,1.5c0,1,0.7,1.4,1.6,1.4c0.7,0,1.6-0.5,1.9-1.1v-1.8H169.4z"/>
		<path class="st1" d="M174.4,37.3h1.6V36c0-2.1,1.1-3.5,3.3-3.5h2.7v1.9H180c-1.2,0-1.5,0.9-1.5,1.9v1.1h2.6v1.8h-2.6v8.1H176v-8.1
			h-1.6V37.3z"/>
		<path class="st1" d="M184,35.9h-1.7l1.6-3.3h2.5L184,35.9z M183.1,47.2v-9.9h2.5v9.9H183.1z"/>
		<path class="st1" d="M193.7,41.2v-0.6c0-1.1-0.7-1.6-1.7-1.6c-1,0-1.9,0.3-2.7,0.8l-0.8-1.6c1.2-0.7,2.5-1.1,3.9-1.1
			c2.4,0,3.8,1.2,3.8,3.7v6.4h-1.9l-0.2-1.1H194c-0.7,0.9-1.8,1.3-3,1.3c-1.9,0-3.3-1.1-3.3-3C187.7,41.2,190,41.2,193.7,41.2z
			 M192.6,42.8c-1.6,0-2.4,0.2-2.4,1.5c0,1,0.7,1.4,1.6,1.4c0.7,0,1.6-0.5,1.9-1.1v-1.8H192.6z"/>
	</g>
	<g>
		<circle class="st1" cx="12.8" cy="22.7" r="6.9"/>
		<path class="st1" d="M71,42.7c-0.1-3.1-0.7-6.2-1.6-9.1c-2-5.9-5.7-11.2-10.6-15.1c-1.9-1.5-4-2.8-6.2-3.9l-4.4-8.1h-3.4l-3.1,0.8
			l-1.4,0c0,0-1,2.2-1.9,4.1c-2,0-4,0.2-6,0.6c-3,0.6-6,1.6-8.7,3c-0.1,0.1-0.2,0.2-0.2,0.3c0,0.2,0.1,0.4,0.4,0.4l0.2,0
			c0.9,0.1,1.7,0.1,2.5,0.1c0.8,0,1.6,0.1,2.3,0.2c1.5,0.1,3,0.3,4.3,0.5c1,0.2,2,0.4,3,0.6c-0.5,0.8-1.1,1.5-2,1.9
			c-2.8,1.4-3.7,5.7-5.6,9.4c-1.9,3.7-2.2,3.1-3.6,4c-1.3,0.9-3,1-5.3,2.5c-2.3,1.6-3.4,4.6-4.6,4.7c-0.6,0-3.1,2-5.2,4
			c-0.2-0.6-0.4-1.2-0.6-1.9c-0.2-0.7-0.4-1.3-0.6-2.1c-0.2-0.7-0.4-1.4-0.6-2.2c-0.2-0.7-0.3-1.5-0.6-2.3L7.5,35
			c0-0.1-0.1-0.2-0.3-0.3c-0.2-0.1-0.4,0-0.5,0.3c-0.9,2.8-1.4,5.7-1.6,8.7c-0.1,3,0.2,5.9,0.9,8.8c1.4,5.8,4.4,11.1,8.6,15.4
			c4.2,4.2,9.6,7.2,15.4,8.6c2.9,0.7,5.8,1,8.8,0.9c3-0.1,5.9-0.7,8.7-1.6c0.1,0,0.2-0.1,0.3-0.3c0.1-0.2-0.1-0.4-0.3-0.5l-0.2-0.1
			c-0.8-0.2-1.6-0.4-2.3-0.6c-0.8-0.2-1.5-0.4-2.2-0.5c-0.7-0.2-1.4-0.4-2.1-0.6c-0.7-0.2-1.3-0.4-2-0.6c-2.5-0.9-4.9-1.8-7-3
			c-4.3-2.2-7.8-4.8-10.9-8c-3.1-3.1-5.7-6.6-7.9-10.9c-0.7-1.3-1.3-2.7-1.9-4.1c0.4-0.3,0.8-0.6,1.3-0.9c1.9-1.4,3.6-3.8,4.6-4.3
			s7.4-5.5,7.3-6.2s4.1-1.5,4.9-1.3s4.6,5.9,4.6,5.9s-0.7-5.1-0.7-5.7c0-0.5,0.1-1.2,0.9-2.7s0.5-5.2,0.8-5.9s1.7-2,2.4-3.4
			s0.7-3.8,1.1-5.2c0.3-0.8,1.4-3.2,2.2-5.1c0,0.1,0,0.2,0,0.3c0,1-1.6,9.4-1.6,9.4s1.1-4.1,1.2-5c0.1-0.9,0.3-1.6,0.8-3.1
			c0.3-0.9,0.5-2.4,0.6-3.9c0,0,0,0,0,0s1-0.2,2.1-0.4c0.2,1.5,0.8,4.5,0.8,5.7c0,1.4,0.7,8.1,0.8,8.6c-0.1-0.5-0.3-6.8-0.2-8.1
			s-0.6-1.8-0.3-2.9c0.2-0.8-0.3-2.3-0.7-3.2c1.4-0.2,2.9-0.2,3.2,0.3c0.4,0.9,0.5,3.1,1.3,3.7s2,3.5,2.3,4.4s2.1,2.6,2.6,2.9
			c0.5,0.3,1.4,2.2,2,4.4s1.7,3.9,2.2,5.2c0.5,1.3,2.3,2.4,3.8,4.7c1.4,2.3,3.3,5.3,3.9,6.7c0.6,1.4,5.9,11,5.9,11s-0.2-1-0.6-2.5
			C70.8,47.6,71,45.1,71,42.7z"/>
		<path class="st1" d="M53.8,40.1L53.8,40.1c0,0.1,0.1,0.1,0.1,0.2L53.8,40.1z"/>
		<path class="st1" d="M53.8,40.1c-1-1.3-2.6-2.3-2.8-2.8c-0.3-0.6-1.4-2.7-1.5-3c-0.1-0.4-1.1-1.8-1.7-2.3
			c-0.6-0.5-3.7-3.8-3.7-3.8s3,4.1,3.7,5.1s0.9,1.8,1.5,3.3s0.4,2.3,1.4,2.9s0.7,0.1,2.1,2c1.4,2,2.2,3.3,2,2.8
			C54.7,43.7,53.8,40.1,53.8,40.1z"/>
		<path class="st1" d="M50.8,27.7c-0.3-0.9-1.7-3.3-2.1-4.1s-0.6-1.4-1.3-2.3c-0.8-0.9-2.2-2.8-2.2-2.8s2.4,4.5,3,6
			c0.6,1.5,0.5,3.2,1.7,4.3c1.1,1.1,2.8,4,3.4,4.9c0.6,1,3,5.6,2.9,5.1c-0.1-0.5-1.7-5-1.7-5C53.5,31.7,51.1,28.5,50.8,27.7z"/>
		<path class="st1" d="M41.8,25.5c0-0.3,0.1-2.1,0.3-3.1s1.3-6.8,0.9-5.7s-1.4,4.4-1.4,4.4c-0.3,0.4-0.8,3.7-1.3,3.6
			c-0.5,0-2.1,1-2.6,2.5c-0.5,1.5-2.2,7.2-2.2,7.4s2.5-6,3.1-6.8c0.5-0.7,0.7-1,1.5-1.3C41,26.3,41.8,25.8,41.8,25.5z"/>
		<path class="st1" d="M27.2,39.8c-0.2,0.7-6.3,7.9-6.5,8.3c-0.2,0.3,6.1-6.5,6.6-6.7s2.4,0.6,2.4,0.6l1.9,1.9c-0.3-1.8-2-4.1-2-4.1
			S27.5,39.1,27.2,39.8z"/>
		<path class="st1" d="M36.5,43.5c-0.7,0.8-2.3,2.7-2.6,3.3c-0.2,0.7-1.1,2.9-0.7,2.3s3.8-4.7,4.8-6.1c1-1.3,1.2-1.4,1.6-3.2
			s1.5-6.3,1.5-6.3L39,37.9C38.6,39.4,37.2,42.7,36.5,43.5z"/>
		<path class="st1" d="M59.5,40c-0.7-2.5-2-5.3-2.1-6.2S55,29.9,55,29.9c-0.1,1.1,1.8,4.7,2.7,6.8c1,2.2,1.4,4.8,2.3,6
			c0.9,1.2,4.2,7.8,4,7.3C63.8,49.5,60.3,42.5,59.5,40z"/>
		<path class="st1" d="M45.1,23.3L45.1,23.3C45.2,23.3,45.2,23.3,45.1,23.3z"/>
	</g>
	<path class="st1" d="M48.8,63.1c-1.9,0.2,2.1,1.2,5.5,1.3c1.9,0,5.4,0,8.4,0.2l0,0c2.3-1.2,13.4-2.8,13.4-2.9
		c0-0.1-0.9-2.1-0.9-2.1l-7.2-0.9l-1.2-1.7L49.3,56l-3.1-0.5c0,0-5.6-0.3-1.9-1.1c3.7-0.7,1.1-1.5-1.9-1.5s-8.5-0.2-9.9-0.2
		c-0.6,0-3,0-4.6-0.1c-0.5,0-1-0.1-1.3-0.1c-0.2,0-0.4,0-0.5-0.1c-0.2,0-0.2-0.1,0.1-0.2l0,0l0,0c0,0,0.5-0.1,0.5-0.1
		c0.8-0.1,1.8-0.3,2.6-0.5c0,0-0.2,0-0.3,0c-0.1,0-4.1,0.1-5.8,0.2c-1.7,0.2-5.2,1,0.9,1.5s9.4,1.6,9.4,1.6s-11,2.7-11.1,2.7
		c-0.1,0.1,0,1.8,0,1.8l4.6,2.1c0.1,0,21-0.1,25,0.1C56,62.2,52.5,62.7,48.8,63.1z"/>
	<g class="st0">
		<path class="st1" d="M84.3,58.9c0.4,0,0.7,0.4,0.7,0.8c0,0.4-0.3,0.8-0.7,0.8c-0.5,0-0.7-0.3-0.7-0.8
			C83.6,59.2,83.9,58.9,84.3,58.9z"/>
		<path class="st1" d="M91.2,55.3v5.6c0,1.7,0.5,2.9,2.4,2.9c1.7,0,2.3-1.2,2.3-2.8v-5.8h1.2V61c0,2.4-1,3.8-3.5,3.8
			c-2.5,0-3.6-1.5-3.6-3.9v-5.6H91.2z"/>
		<path class="st1" d="M98.6,64.6l3.5-9.4h1.3l3.5,9.4h-1.3l-0.9-2.5h-3.9l-0.9,2.5H98.6z M104.4,61.2c-0.5-1.6-1.1-3.1-1.6-4.7h0
			c-0.5,1.6-1.1,3.1-1.6,4.7H104.4z"/>
		<path class="st1" d="M114.6,63.4l0.3,0.9c-0.7,0.4-1.6,0.5-2.4,0.5c-2.9,0-4.6-2-4.6-4.8c0-2.8,1.7-4.8,4.6-4.8
			c0.9,0,1.7,0.1,2.5,0.5l-0.3,0.9c-0.6-0.3-1.3-0.5-2-0.5c-2.4,0-3.5,1.7-3.5,3.9c0,2.2,1.1,3.9,3.5,3.9
			C113.3,63.8,113.9,63.7,114.6,63.4z"/>
		<path class="st1" d="M116.4,54.1h1.2v4.4c0.6-0.6,1.4-0.9,2.3-0.9c1.5,0,2.4,0.9,2.4,2.4v4.8h-1.2v-4.5c0-1-0.4-1.7-1.5-1.7
			c-0.7,0-1.4,0.4-2,0.9v5.3h-1.2V54.1z"/>
		<path class="st1" d="M128,58.9c0.4,0,0.7,0.4,0.7,0.8c0,0.4-0.3,0.8-0.7,0.8c-0.5,0-0.7-0.3-0.7-0.8
			C127.2,59.2,127.5,58.9,128,58.9z"/>
	</g>
</g>
</svg>
